<?xml version="1.0" encoding="UTF-8" standalone="no"?><!DOCTYPE svg PUBLIC "-//W3C//DTD SVG 1.1//EN" "http://www.w3.org/Graphics/SVG/1.1/DTD/svg11.dtd"><svg width="100%" height="100%" viewBox="0 0 1024 1024" version="1.1" xmlns="http://www.w3.org/2000/svg" xmlns:xlink="http://www.w3.org/1999/xlink" xml:space="preserve" xmlns:serif="http://www.serif.com/" style="fill-rule:evenodd;clip-rule:evenodd;stroke-linejoin:round;stroke-miterlimit:2;"><g transform="matrix(3.44881,0,0,3.44881,-2878.15,-198.426)"><path d="M933.35,331.48C932.5,329.24 934.39,321.28 937.2,315.3C938.44,312.66 941.71,308.18 944.48,305.34C948.44,301.26 950.73,299.82 955.35,298.49C962.09,296.54 964.4,296.77 983.5,301.17C1000.04,304.99 1010.31,304.93 1014.52,301C1019.33,296.5 1020.33,293.39 1019.67,284.93C1018.93,275.32 1020.11,270.98 1024.52,267.11C1026.95,264.98 1028,263.21 1028,261.23C1028,257.06 1026.29,256 1019.55,255.98C1008.51,255.93 1002.22,253.35 1005.41,250.17C1006.45,249.12 1007.58,249.07 1010.62,249.91C1015.63,251.3 1022.85,251.3 1026.87,249.89C1032.31,248 1033.38,243.62 1030,237C1025.83,228.83 1027.76,224.66 1038.11,219.44C1049.45,213.73 1049.34,211.71 1036.9,196.28C1028.66,186.06 1024.56,178.5 1022.51,169.76C1021.2,164.18 1021.22,162.1 1022.68,150.56C1024.02,139.91 1024.11,136.1 1023.17,129.06C1021.74,118.37 1017.08,103.5 1012.52,95.08C1009.97,90.39 1009.32,88.32 1010.09,87.39C1011.87,85.25 1013.68,86.86 1017.37,93.89C1022.39,103.44 1026.7,116.98 1028.12,127.68C1029.1,135.04 1029.08,139.11 1028.03,148.2C1025.58,169.55 1027.31,175.62 1040.81,192.83C1048.64,202.82 1052,208.52 1052,211.8C1052,215.62 1047.57,220.29 1040.5,223.91C1032.42,228.05 1031.51,230.17 1034.94,236.88C1037.91,242.7 1037.61,246.8 1033.9,251.3C1031.77,253.89 1031.1,255.44 1031.76,256.28C1035,260.43 1033.8,265.33 1028.31,270.36L1024.52,273.83L1024.51,285.16C1024.5,295.39 1024.26,296.88 1022.1,300.37C1020.46,302.99 1018.06,305 1014.6,306.61C1007.42,309.95 999.23,309.75 981.68,305.83C963.38,301.73 957.33,301.68 951.79,305.59C946.44,309.37 941.48,316.69 939.42,323.81C938.52,326.94 937.46,330.15 937.07,330.94C936,333.11 934.08,333.38 933.35,331.48Z" style="fill:rgb(191,167,156);"/></g><g transform="matrix(3.44881,0,0,3.44881,-2878.15,-198.426)"><path d="M975.77,180.52C968.54,178.53 963.54,175.61 963.18,173.16C962.77,170.39 963.73,170.44 971.28,173.62C980.21,177.39 991.87,178.04 998.44,175.13C1004.67,172.37 1006.22,172.4 1005.82,175.24C1005.05,180.66 987.49,183.75 975.77,180.52Z" style="fill:rgb(191,167,156);"/></g><g transform="matrix(3.44881,0,0,3.44881,-2878.15,-198.426)"><path d="M948.5,149C947.55,147.46 948.76,146.16 953.27,143.86C969.34,135.66 988.89,134.93 1003.78,141.97C1010.54,145.17 1011.84,146.59 1009.86,148.57C1008.69,149.74 1007.65,149.57 1002.99,147.4C996.08,144.2 987,142.03 980.41,142.01C974.33,142 961.75,145.07 956.12,147.94C951.67,150.21 949.44,150.52 948.5,149Z" style="fill:rgb(191,167,156);"/></g></svg>