<?xml version="1.0" encoding="UTF-8" standalone="no"?><!DOCTYPE svg PUBLIC "-//W3C//DTD SVG 1.1//EN" "http://www.w3.org/Graphics/SVG/1.1/DTD/svg11.dtd"><svg width="100%" height="100%" viewBox="0 0 1024 1024" version="1.1" xmlns="http://www.w3.org/2000/svg" xmlns:xlink="http://www.w3.org/1999/xlink" xml:space="preserve" xmlns:serif="http://www.serif.com/" style="fill-rule:evenodd;clip-rule:evenodd;stroke-linejoin:round;stroke-miterlimit:2;"><g transform="matrix(3.87895,0,0,3.87895,-3478.69,-1594.84)"><path d="M990.5,654.55C988.3,653.75 985.12,651.59 983.44,649.76C980.86,646.97 980.19,645.12 979.21,638.23C978.08,630.24 975.88,624.61 972.27,620.47C971.3,619.35 964.2,612.98 956.5,606.33C948.8,599.67 940.61,592.26 938.3,589.86C931.12,582.42 921.35,558.29 917.09,537.5C915.96,532 914.12,523.45 913,518.5C909.44,502.8 908.68,496.19 910.04,492.91C912.09,487.95 917.35,487.89 923.75,492.76L927,495.24L927,489.69C927,483.3 928.61,481 933.07,481C936.76,481 943.26,487.22 944.96,492.38C945.62,494.37 946.78,496 947.54,496C949.82,496 955.96,502 958,506.23C958.472,507.207 961.03,512.896 961.03,512.896C961.03,512.896 967.213,513.067 969.95,522.5C971.905,529.239 972.85,551 972.85,551C976.61,554.58 982.91,558.96 988.09,561.96C1005.03,571.79 1015.66,584.87 1019.41,600.5C1020.21,603.8 1021.64,615.35 1022.6,626.17C1024.59,648.72 1024.5,649.14 1016.74,653.17C1011.26,656.01 996.57,656.79 990.5,654.55ZM961.03,519C960.53,521.667 961.866,530.732 963,540C963.187,541.531 965.901,545.163 968,545.5C969.362,545.719 967.328,528.583 966,524C965.215,521.29 961.53,516.333 961.03,519ZM946,531.04C946,525.96 941.64,498.08 940.38,495.05C938.88,491.46 934.31,486 932.81,486C931.7,486 931.83,496.99 933.04,505.5C933.58,509.35 935.41,516.78 937.1,522C938.78,527.22 940.31,532.01 940.5,532.63C941.05,534.44 946,533.01 946,531.04ZM1013.28,649.65C1019.34,647.12 1019.35,647.1 1017.49,626.3C1015.58,604.83 1014.11,597.91 1009.72,589.64C1004.82,580.43 998.96,574.73 986.26,566.85C978.45,562 971.32,556.47 964.37,549.88C956.67,542.56 953.04,539.82 949.96,538.99C937.51,535.64 939.9,544.02 956.43,561.71C964.22,570.05 971,580 971,583.08C971,585.2 968.46,586.29 967.25,584.69C966.75,584.04 965.16,581.43 963.72,578.91C962.28,576.38 957,569.86 951.99,564.41C941.87,553.41 937.02,546.01 937.01,541.53C937,538.56 929.38,512.54 926.49,505.63C924.67,501.27 918.35,494 916.38,494C914.2,494 914.67,500.51 918.08,517.31C922.92,541.15 924.57,547.66 929.06,560.5C936.65,582.18 938.2,584.29 960.5,603.04C978.97,618.57 982.01,622.84 984.11,636.16C985.46,644.8 987.01,647.66 991.33,649.54C995.44,651.33 1009.11,651.4 1013.28,649.65ZM957.56,525.88C956.72,520.72 955.57,514.87 955.01,512.89C954.06,509.55 948.23,500.38 947.55,501.16C947.39,501.35 948.08,507.35 949.09,514.5C950.1,521.65 950.95,528.85 950.97,530.5C951,532.92 951.73,533.89 954.75,535.52C957.22,536.85 958.6,537.15 958.8,536.4C958.96,535.78 958.41,531.04 957.56,525.88Z" style="fill:rgb(191,167,156);"/></g><g transform="matrix(-3.87895,0,0,3.87895,4502.69,-1594.84)"><path d="M990.5,654.55C988.3,653.75 985.12,651.59 983.44,649.76C980.86,646.97 980.19,645.12 979.21,638.23C978.08,630.24 975.88,624.61 972.27,620.47C971.3,619.35 964.2,612.98 956.5,606.33C948.8,599.67 940.61,592.26 938.3,589.86C931.12,582.42 921.35,558.29 917.09,537.5C915.96,532 914.12,523.45 913,518.5C909.44,502.8 908.68,496.19 910.04,492.91C912.09,487.95 917.35,487.89 923.75,492.76L927,495.24L927,489.69C927,483.3 928.61,481 933.07,481C936.76,481 943.26,487.22 944.96,492.38C945.62,494.37 946.78,496 947.54,496C949.82,496 955.96,502 958,506.23C958.472,507.207 961.03,512.896 961.03,512.896C961.03,512.896 967.213,513.067 969.95,522.5C971.905,529.239 972.85,551 972.85,551C976.61,554.58 982.91,558.96 988.09,561.96C1005.03,571.79 1015.66,584.87 1019.41,600.5C1020.21,603.8 1021.64,615.35 1022.6,626.17C1024.59,648.72 1024.5,649.14 1016.74,653.17C1011.26,656.01 996.57,656.79 990.5,654.55ZM961.03,519C960.53,521.667 961.866,530.732 963,540C963.187,541.531 965.901,545.163 968,545.5C969.362,545.719 967.328,528.583 966,524C965.215,521.29 961.53,516.333 961.03,519ZM946,531.04C946,525.96 941.64,498.08 940.38,495.05C938.88,491.46 934.31,486 932.81,486C931.7,486 931.83,496.99 933.04,505.5C933.58,509.35 935.41,516.78 937.1,522C938.78,527.22 940.31,532.01 940.5,532.63C941.05,534.44 946,533.01 946,531.04ZM1013.28,649.65C1019.34,647.12 1019.35,647.1 1017.49,626.3C1015.58,604.83 1014.11,597.91 1009.72,589.64C1004.82,580.43 998.96,574.73 986.26,566.85C978.45,562 971.32,556.47 964.37,549.88C956.67,542.56 953.04,539.82 949.96,538.99C937.51,535.64 939.9,544.02 956.43,561.71C964.22,570.05 971,580 971,583.08C971,585.2 968.46,586.29 967.25,584.69C966.75,584.04 965.16,581.43 963.72,578.91C962.28,576.38 957,569.86 951.99,564.41C941.87,553.41 937.02,546.01 937.01,541.53C937,538.56 929.38,512.54 926.49,505.63C924.67,501.27 918.35,494 916.38,494C914.2,494 914.67,500.51 918.08,517.31C922.92,541.15 924.57,547.66 929.06,560.5C936.65,582.18 938.2,584.29 960.5,603.04C978.97,618.57 982.01,622.84 984.11,636.16C985.46,644.8 987.01,647.66 991.33,649.54C995.44,651.33 1009.11,651.4 1013.28,649.65ZM957.56,525.88C956.72,520.72 955.57,514.87 955.01,512.89C954.06,509.55 948.23,500.38 947.55,501.16C947.39,501.35 948.08,507.35 949.09,514.5C950.1,521.65 950.95,528.85 950.97,530.5C951,532.92 951.73,533.89 954.75,535.52C957.22,536.85 958.6,537.15 958.8,536.4C958.96,535.78 958.41,531.04 957.56,525.88Z" style="fill:rgb(191,167,156);"/></g><g transform="matrix(3.87895,0,0,3.87895,-3478.69,-1594.84)"><path d="M1017.2,559.25C989.84,538.88 968.16,513.73 962.49,495.77C957.2,479.02 960.6,462.42 971.16,453.51C977.44,448.21 983.67,446.02 992.5,446.02C1001.24,446.02 1007.56,448.21 1013.64,453.34C1015.37,454.81 1017.09,456 1017.46,456C1017.83,456 1019.61,454.88 1021.41,453.5C1025.62,450.29 1027.2,450.35 1032.44,453.96L1036.73,456.91L1039.08,454.41C1040.37,453.04 1044.23,450.54 1047.65,448.85C1053.37,446.04 1054.54,445.82 1062.19,446.15C1078.53,446.87 1089.2,456.04 1092.67,472.35C1098.1,497.9 1078.58,527.64 1034.91,560.32C1030.74,563.44 1027.09,566 1026.8,566C1026.51,566 1022.19,562.96 1017.2,559.25ZM1041.19,531.82C1050.97,526.61 1057.83,516.63 1060.15,504.23C1061.14,498.95 1060.62,481.81 1059.41,479.85C1057.75,477.17 1036.64,492.99 1032.13,500.28C1030.15,503.5 1030.15,503.51 1032.15,509.44C1034.31,515.85 1034.98,525.24 1033.7,531.25C1032.71,535.92 1033.39,535.98 1041.19,531.82ZM1042.5,547.73C1054.43,537.68 1068.24,523.78 1074.53,515.5C1080.65,507.42 1086.63,494.88 1087.98,487.23C1090.54,472.79 1084.14,458.77 1072.51,453.35C1063.35,449.09 1051.06,450.78 1043.44,457.36L1039.69,460.6L1043.85,467.49C1046.13,471.28 1048,474.94 1048,475.63C1048,478.01 1049.8,477.98 1055.42,475.49C1058.52,474.12 1061.45,473 1061.93,473C1063.69,473 1065.15,479.77 1065.7,490.5C1066.3,502.4 1065.07,509.62 1060.92,518.46C1056.26,528.37 1044.78,537.73 1034.2,540.24L1029,541.47L1029,549.77C1029,559.68 1028.16,559.81 1042.5,547.73ZM1029.93,494.42C1031.27,492.45 1034.98,488.79 1038.18,486.28C1041.38,483.76 1044,481.15 1044,480.48C1044,475.82 1034.93,462.22 1028.99,458L1025.85,455.76L1020.34,461.45C1017.31,464.58 1013.78,469.47 1012.51,472.32C1008.69,480.85 1008.66,481.37 1011.87,483.26C1013.45,484.2 1017.38,487.86 1020.62,491.41C1023.85,494.95 1026.72,497.89 1027,497.92C1027.28,497.96 1028.59,496.38 1029.93,494.42ZM1024,549.5C1024,541.72 1023.83,541 1022.04,541C1017.43,541 1009.05,536.73 1003.14,531.39C992.37,521.64 988,511.48 988,496.18C988,485.14 989.69,474.06 991.47,473.37C992.15,473.11 995.27,474.03 998.4,475.42L1004.1,477.93L1005.94,473.72C1006.95,471.4 1009.19,467.48 1010.9,465L1014.02,460.5L1010.41,457.31C1003.91,451.56 992.91,449.45 983.76,452.19C978.49,453.77 970.79,460.84 967.9,466.74C965.97,470.7 965.58,473.09 965.58,481C965.57,489.5 965.92,491.3 968.83,498.13C973.23,508.44 982.14,520.36 994.9,533.01C1003.22,541.25 1022.39,557.84 1023.75,557.98C1023.89,557.99 1024,554.17 1024,549.5ZM1027.98,533.04C1028.74,531.22 1029.07,526.89 1028.84,521.79C1028.33,510.19 1024.44,502.08 1015,492.93C1008.31,486.45 1001.08,481.56 996.48,480.41C994.52,479.91 994.22,480.35 993.65,484.57C991.71,498.66 994.02,511.82 999.89,520.23C1005.85,528.75 1016.56,535.69 1024.13,535.92C1026.13,535.98 1027.05,535.3 1027.98,533.04Z" style="fill:rgb(191,167,156);"/></g></svg>