<?xml version="1.0" encoding="UTF-8" standalone="no"?><!DOCTYPE svg PUBLIC "-//W3C//DTD SVG 1.1//EN" "http://www.w3.org/Graphics/SVG/1.1/DTD/svg11.dtd"><svg width="100%" height="100%" viewBox="0 0 1024 1024" version="1.1" xmlns="http://www.w3.org/2000/svg" xmlns:xlink="http://www.w3.org/1999/xlink" xml:space="preserve" xmlns:serif="http://www.serif.com/" style="fill-rule:evenodd;clip-rule:evenodd;stroke-linejoin:round;stroke-miterlimit:2;"><g transform="matrix(4.34274,0,0,4.34274,-1042.21,-1869.07)"><path d="M286.89,647.5C280.85,644.22 281,645.59 281,593.09C281,560.85 281.34,544.91 282.04,544.47C282.62,544.12 283.74,544.37 284.54,545.04C285.78,546.06 286,553.3 286,593.12C286,638.67 286.06,640.06 288,642C289.87,643.87 291.33,644 310.54,644C330.53,644 331.04,643.95 330.04,642.07C329.41,640.9 329,631.21 329,617.57C329,596.33 329.12,594.88 331,593C333.31,590.69 337.05,590.48 345.43,592.16C352.42,593.56 352.96,593.03 352.98,584.68C353,579.22 353.14,578.88 355.25,579.18C357.29,579.47 357.53,580.12 357.8,586.25C358.13,593.95 357.73,593.74 367.88,591.56C376.31,589.75 379.57,590.82 381.08,595.88C382.33,600.04 381.9,639.34 380.58,642.25C379.84,643.88 381.1,644 399.67,644C416.05,644 419.95,643.73 421.78,642.44L424,640.89L424,593.57C424,552.72 424.21,546.07 425.5,545C426.7,544.01 427.31,544.01 428.53,545.02C429.87,546.13 430.02,552.15 429.78,593.57C429.51,639.79 429.45,640.92 427.4,643.68C423.36,649.12 425.45,648.97 355,648.95C300.41,648.92 289.07,648.68 286.89,647.5ZM372.32,642.85C373.52,642.22 374.83,641.21 375.23,640.6C376.25,639.08 376.19,596.24 375.18,595.61C374.72,595.33 371.68,595.8 368.43,596.65C364.01,597.81 359.95,598.05 352.5,597.59C347,597.26 340.7,596.87 338.5,596.74L334.5,596.5L334.23,617.78L333.96,639.05L336.43,641.53C338.86,643.95 339.24,644 354.52,644C364.35,644 370.94,643.57 372.32,642.85Z" style="fill:rgb(191,167,156);"/></g><g transform="matrix(4.34274,0,0,4.34274,-1042.21,-1869.07)"><path d="M343.49,579.34C340.78,573.62 342,567.67 348.35,555.73C351.96,548.95 354.37,545.5 355.49,545.5C356.62,545.5 359.02,549.06 362.8,556.33C367.56,565.48 368.43,567.97 368.43,572.42C368.43,578.39 365.92,583.34 363.19,582.77C361.33,582.39 361.33,581.49 363.13,575.36C364.3,571.4 364.17,570.84 360.1,562.36C355.21,552.17 355.23,552.17 349.79,563.92C346.82,570.36 346.77,570.93 348.57,579.75C349.14,582.55 348.95,583 347.23,583C345.91,583 344.64,581.75 343.49,579.34Z" style="fill:rgb(191,167,156);"/></g><g transform="matrix(4.34274,0,0,4.34274,-1042.21,-1869.07)"><path d="M256.18,544.11C256.61,541.58 350.22,454.41 353.36,453.62C354.72,453.28 356.75,453.34 357.88,453.76C359.67,454.42 378.69,471.7 404.99,496.55C421.49,512.14 431.62,521.62 442.75,531.89C453.6,541.91 456.34,546 452.19,546C450.47,546 434.02,531 380.5,480.66C366.22,467.23 356.73,459.02 355.47,459.01C354.25,459.01 348.82,463.31 341.94,469.75C335.62,475.66 317.44,492.65 301.53,507.5C285.63,522.35 269.89,537.07 266.56,540.22C260.29,546.14 255.53,547.92 256.18,544.11Z" style="fill:rgb(191,167,156);"/></g></svg>