<?xml version="1.0" encoding="UTF-8" standalone="no"?><!DOCTYPE svg PUBLIC "-//W3C//DTD SVG 1.1//EN" "http://www.w3.org/Graphics/SVG/1.1/DTD/svg11.dtd"><svg width="100%" height="100%" viewBox="0 0 1024 1024" version="1.1" xmlns="http://www.w3.org/2000/svg" xmlns:xlink="http://www.w3.org/1999/xlink" xml:space="preserve" xmlns:serif="http://www.serif.com/" style="fill-rule:evenodd;clip-rule:evenodd;stroke-linejoin:round;stroke-miterlimit:2;"><g transform="matrix(3.79104,0,0,3.79104,-834.682,-271.308)"><path d="M257.3,316.46C246.08,310.87 237.58,297.74 237.53,285.93C237.49,277.84 239.57,274.35 248.98,266.74C252.54,263.86 261.62,255.6 269.15,248.39C280.72,237.33 284.14,234.65 291.17,231.22C302.2,225.84 308.19,224.66 321.56,225.24C330.05,225.61 334.85,226.43 343,228.92C349.23,230.82 356.85,232.36 361.74,232.7L369.98,233.28L374.24,228.87C376.58,226.44 381.28,221.27 384.68,217.37C391.48,209.59 395.97,206.91 403.41,206.19C407.34,205.81 408.86,205.09 411.09,202.55C412.61,200.82 416.19,198.12 419.04,196.57C423.48,194.16 424.97,193.84 429.36,194.33C433.69,194.82 435.13,194.52 438.5,192.46C443.64,189.31 450.86,189.08 453.48,191.98C456.09,194.86 455.01,199.29 449.07,210.06C446.28,215.12 444,219.43 444,219.64C444,219.85 446.36,218.47 449.25,216.58C458.07,210.8 466.75,209.65 471.18,213.67C473.54,215.79 473.5,220.67 471.1,224.6C466.97,231.37 439.88,259.05 429.86,266.75C422.45,272.43 405.01,282.82 391.44,289.63C376.09,297.34 370.72,298.05 347.74,295.45C338.26,294.38 325.33,293.51 319,293.51C303.22,293.54 298.63,295.72 282.87,310.67C279.22,314.13 275.03,317.42 273.55,317.98C268.93,319.74 262.71,319.16 257.3,316.46ZM273.03,312.31C274.39,311.39 279.13,307.22 283.57,303.06C299.82,287.83 308.94,285.89 344.71,290.09C372.65,293.37 376.45,292.63 399.85,279.4C423.19,266.2 426.63,263.64 443.81,246.64C466.44,224.24 470.97,218.08 465.98,216.49C460.83,214.86 452.4,219.6 437.04,232.79C431.83,237.26 424.76,242.56 421.32,244.57C417.8,246.63 414.78,249.16 414.41,250.36C412.09,258 406.14,259.71 377.5,260.99C363.46,261.61 354.68,262.46 351,263.56C341.45,266.39 340,266.49 340,264.27C340,262.2 343.88,260.09 351.5,257.98C353.7,257.37 364.95,256.5 376.5,256.04C388.05,255.59 399.52,254.67 402,254.01C409.87,251.91 412.03,248.25 407.75,244.24C403.77,240.51 399.9,239.83 378,238.96C357.62,238.15 355.85,237.92 344,234.52C327.14,229.68 313.38,228.77 303.38,231.83C292.65,235.11 284.64,240.46 271.53,253.07C264.91,259.44 256.59,267.03 253.04,269.95C243.62,277.69 242.49,279.43 242.57,285.98C242.8,302.58 262.42,319.55 273.03,312.31ZM420.64,239.08C423.86,236.93 427.48,234.12 428.67,232.83C431.77,229.51 441.13,214.35 446.18,204.48C451.15,194.77 450.82,192.92 444.46,195.01C439.42,196.68 433.72,202.04 427.99,210.48C425.38,214.34 419.84,221.95 415.69,227.38L408.14,237.27L410.82,240.09C412.29,241.64 413.79,242.93 414.14,242.95C414.49,242.98 417.41,241.24 420.64,239.08ZM391.5,227.78C398.12,219.56 403.29,211.95 402.67,211.33C402.39,211.06 400.15,211.73 397.68,212.82C394.47,214.24 391.11,217.26 385.85,223.46C381.81,228.22 378.35,232.54 378.17,233.06C377.98,233.58 379.78,234 382.17,233.99C386.27,233.98 386.76,233.66 391.5,227.78ZM409.57,227.25C416.2,218.8 429,200.58 429,199.61C429,199.27 427.95,199 426.67,199C423.18,199 416.09,204.24 410.79,210.73C400.94,222.79 393.21,233.91 394.35,234.37C394.98,234.63 397.3,234.88 399.5,234.92C403.33,234.99 403.76,234.66 409.57,227.25Z" style="fill:rgb(191,167,156);"/></g><g transform="matrix(3.79104,0,0,3.79104,-834.682,-271.308)"><path d="M360.06,208.9C358.73,208.37 355.55,205.98 353.01,203.61C345.9,196.96 342.21,196.77 327.34,202.32C307.88,209.59 294.71,211.33 297.86,206.22C298.27,205.57 302.29,204.33 306.81,203.48C317.54,201.44 322.84,199.08 326.78,194.59C330.39,190.49 330.59,189.22 328.53,183.5C325.48,175.03 327.22,167.2 333.78,159.9C336.2,157.2 338.74,155 339.41,155C341.17,155 344.04,161.57 344.7,167.09C345.59,174.66 344.34,178.72 339.51,183.89C335.68,187.98 332.65,194 334.41,194C335.75,194 351.67,185.66 354.75,183.34C361.22,178.48 362.7,172.07 358.98,165C354.3,156.11 356.95,143.2 365.04,135.47L368.15,132.5L370.54,135.27C373.16,138.29 376,146.65 376,151.32C376,156.29 373.84,161.82 370.28,165.99C368.34,168.25 366.62,171.55 366.28,173.66L365.68,177.36L369.06,174.96C370.91,173.64 376.57,168.49 381.63,163.53C390.01,155.3 390.89,154.08 391.53,149.74C392.18,145.33 391.95,144.58 388.45,139.49C382.98,131.56 382.58,125.32 386.96,116.42C390.8,108.62 392.13,108.48 396.74,115.35C402.68,124.23 403.09,130.09 398.38,138.99C395.97,143.54 395.24,148 396.91,148C397.41,148 400.96,143.84 404.81,138.75L411.79,129.5L412.21,120.91C412.68,111.26 415.2,105.55 421.23,100.45C424.82,97.41 432.85,93.51 433.71,94.38C434.02,94.68 434.48,97.98 434.74,101.71C435.61,113.97 432.14,121.23 422.67,127C418.39,129.61 415.28,132.73 410.46,139.26C406.91,144.08 404,148.24 404,148.51C404,148.78 404.88,149 405.97,149C407.05,149 410.16,147.02 412.88,144.61C415.6,142.19 419.5,139.66 421.55,138.98C428.19,136.79 442,139.9 442,143.58C442,144.51 440.38,146.8 438.39,148.67C430.56,156.05 422.02,158.12 414.1,154.54C409.25,152.36 403.14,153.01 397.85,156.28C395.86,157.5 390.08,162.44 384.99,167.25C377.29,174.53 376.14,176 378.12,176C379.43,175.99 382.71,174.87 385.42,173.5C394.95,168.66 405.06,170.48 413.64,178.56L417.49,182.2L414.49,184.59C408.25,189.57 397.3,191.43 390.72,188.63C388.95,187.87 385.75,185.85 383.61,184.13C380.4,181.54 378.84,181 374.64,181C370.25,181 368.1,181.83 358.78,187.17C344.76,195.19 344.57,196.77 358,193.38C366.71,191.18 371.13,192.4 378.21,198.95C382.71,203.12 383.33,204.12 382.39,205.67C380.22,209.24 366.05,211.29 360.06,208.9ZM406.53,183.55C408.44,182.75 410,181.87 410,181.59C410,181.31 408.05,179.94 405.66,178.54C400.5,175.51 391.83,175.03 388.21,177.57C385.61,179.39 386.02,180.43 390.36,183.08C394.15,185.39 401.61,185.61 406.53,183.55ZM368.75,160.03C371.44,156.06 371.77,148.77 369.5,143.35C367.64,138.91 366.21,139.76 363.01,147.2C360.74,152.49 360.77,157.83 363.1,162.19C364.45,164.7 365.98,164.12 368.75,160.03ZM395.28,135.1C398.15,130.25 396.86,121.61 392.76,118.22C389.32,115.36 387.68,128.17 390.69,134.47C391.61,136.41 392.64,138 392.97,138C393.3,138 394.34,136.69 395.28,135.1ZM422.01,121.75C427.55,117.98 429.36,114.67 429.82,107.49C430.09,103.25 429.86,101 429.15,101C427.06,101 420.67,107.52 418.86,111.49C417,115.59 416.32,124 417.85,124C418.32,124 420.19,122.99 422.01,121.75ZM337.75,179.03C340.02,175.68 340.71,169.26 339.36,164.21C338.51,161.04 336.99,161.87 334.29,166.98C332.04,171.25 331.43,176.28 332.64,180.79C333.42,183.72 334.92,183.2 337.75,179.03ZM431.14,148.53C433.26,147.12 435,145.58 435,145.1C435,142.62 423.46,142.31 419.97,144.69C415.42,147.8 414.93,149.61 418.25,151.02C421.58,152.42 426.77,151.42 431.14,148.53ZM374.82,204.13C376.72,202.93 370.91,198.26 366.47,197.43C362.54,196.69 356,197.65 356,198.96C356,199.43 357.38,200.99 359.08,202.41C361.6,204.54 363.17,205 367.83,204.98C370.95,204.98 374.09,204.59 374.82,204.13Z" style="fill:rgb(191,167,156);"/></g></svg>