<?xml version="1.0" encoding="UTF-8" standalone="no"?><!DOCTYPE svg PUBLIC "-//W3C//DTD SVG 1.1//EN" "http://www.w3.org/Graphics/SVG/1.1/DTD/svg11.dtd"><svg width="100%" height="100%" viewBox="0 0 1527 312" version="1.1" xmlns="http://www.w3.org/2000/svg" xmlns:xlink="http://www.w3.org/1999/xlink" xml:space="preserve" xmlns:serif="http://www.serif.com/" style="fill-rule:evenodd;clip-rule:evenodd;stroke-linejoin:round;stroke-miterlimit:2;"><g transform="matrix(0.618353,0,0,0.618353,-479.362,-526.432)"><g transform="matrix(216.387,0,0,216.387,877.437,1165)"><path d="M0.105,0.311C0.107,0.302 0.108,0.293 0.109,0.284C0.112,0.264 0.114,0.244 0.115,0.225C0.119,0.113 0.123,0.001 0.127,-0.111C0.128,-0.132 0.128,-0.153 0.129,-0.174C0.13,-0.184 0.129,-0.194 0.128,-0.204C0.127,-0.209 0.124,-0.213 0.119,-0.215C0.114,-0.218 0.109,-0.218 0.104,-0.215C0.091,-0.21 0.084,-0.201 0.084,-0.188C0.082,-0.154 0.082,-0.121 0.082,-0.088C0.08,-0.021 0.081,0.045 0.083,0.112C0.085,0.178 0.092,0.244 0.105,0.311ZM0.003,-0.111C0.007,-0.229 0.012,-0.341 0.02,-0.447C0.027,-0.553 0.035,-0.656 0.044,-0.758L0.044,-0.759C0.045,-0.767 0.046,-0.775 0.047,-0.783C0.052,-0.794 0.061,-0.802 0.074,-0.806C0.088,-0.81 0.1,-0.808 0.109,-0.801C0.112,-0.799 0.114,-0.796 0.115,-0.793C0.117,-0.791 0.118,-0.788 0.118,-0.785C0.118,-0.769 0.118,-0.753 0.116,-0.738L0.116,-0.729C0.113,-0.68 0.11,-0.63 0.106,-0.58C0.101,-0.493 0.096,-0.406 0.091,-0.319C0.091,-0.309 0.091,-0.298 0.091,-0.288C0.092,-0.283 0.093,-0.28 0.095,-0.276C0.097,-0.273 0.1,-0.271 0.105,-0.271C0.118,-0.27 0.126,-0.275 0.129,-0.287C0.131,-0.299 0.132,-0.311 0.131,-0.324C0.131,-0.351 0.131,-0.379 0.132,-0.407C0.133,-0.518 0.133,-0.63 0.133,-0.742L0.133,-0.765C0.133,-0.805 0.133,-0.846 0.131,-0.887C0.13,-0.928 0.126,-0.968 0.119,-1.008C0.116,-1.032 0.123,-1.045 0.141,-1.047C0.167,-1.052 0.185,-1.044 0.192,-1.023C0.2,-0.998 0.205,-0.972 0.208,-0.945C0.212,-0.888 0.215,-0.83 0.217,-0.773C0.218,-0.716 0.218,-0.659 0.217,-0.602C0.216,-0.511 0.216,-0.419 0.216,-0.327C0.215,-0.307 0.224,-0.3 0.243,-0.307C0.255,-0.31 0.267,-0.315 0.278,-0.32C0.391,-0.364 0.495,-0.424 0.591,-0.498C0.65,-0.545 0.703,-0.597 0.748,-0.656C0.793,-0.714 0.826,-0.774 0.848,-0.836C0.87,-0.898 0.876,-0.957 0.867,-1.015C0.858,-1.072 0.828,-1.123 0.779,-1.167C0.73,-1.211 0.657,-1.245 0.56,-1.268C0.524,-1.275 0.489,-1.28 0.454,-1.282C0.419,-1.285 0.384,-1.285 0.348,-1.283C0.256,-1.281 0.167,-1.27 0.08,-1.248C-0.007,-1.227 -0.091,-1.194 -0.172,-1.15C-0.225,-1.121 -0.273,-1.084 -0.315,-1.041C-0.342,-1.014 -0.363,-0.984 -0.378,-0.949C-0.396,-0.903 -0.397,-0.859 -0.382,-0.818C-0.367,-0.776 -0.338,-0.743 -0.295,-0.72C-0.292,-0.718 -0.288,-0.716 -0.285,-0.715C-0.277,-0.711 -0.27,-0.707 -0.263,-0.703C-0.261,-0.701 -0.259,-0.699 -0.258,-0.695C-0.257,-0.692 -0.257,-0.689 -0.258,-0.686C-0.258,-0.683 -0.26,-0.681 -0.262,-0.678C-0.264,-0.676 -0.267,-0.675 -0.27,-0.673C-0.286,-0.668 -0.303,-0.668 -0.319,-0.674C-0.358,-0.685 -0.39,-0.705 -0.416,-0.734C-0.442,-0.763 -0.459,-0.797 -0.467,-0.835C-0.476,-0.874 -0.474,-0.913 -0.461,-0.953C-0.442,-1 -0.415,-1.041 -0.378,-1.076C-0.338,-1.116 -0.294,-1.151 -0.246,-1.179C-0.198,-1.208 -0.147,-1.232 -0.095,-1.251C0.041,-1.301 0.181,-1.329 0.326,-1.335C0.371,-1.337 0.415,-1.337 0.46,-1.335C0.504,-1.333 0.549,-1.327 0.593,-1.318C0.699,-1.295 0.781,-1.261 0.838,-1.216C0.895,-1.17 0.932,-1.119 0.948,-1.06C0.964,-1.001 0.964,-0.939 0.947,-0.875C0.93,-0.81 0.901,-0.746 0.86,-0.682C0.819,-0.619 0.769,-0.56 0.711,-0.506C0.653,-0.452 0.591,-0.407 0.525,-0.37C0.443,-0.325 0.357,-0.289 0.268,-0.261C0.26,-0.258 0.252,-0.256 0.245,-0.254C0.242,-0.253 0.24,-0.253 0.237,-0.252C0.219,-0.248 0.21,-0.236 0.21,-0.217C0.21,-0.194 0.209,-0.171 0.208,-0.149C0.208,-0.127 0.208,-0.106 0.208,-0.085C0.207,0.075 0.198,0.235 0.181,0.394C0.178,0.435 0.17,0.477 0.158,0.517C0.149,0.54 0.131,0.552 0.105,0.552C0.084,0.552 0.069,0.543 0.059,0.525C0.052,0.51 0.047,0.494 0.043,0.478C0.033,0.432 0.025,0.384 0.02,0.337C0.014,0.289 0.01,0.241 0.007,0.193C-0,0.076 -0.002,-0.025 0.003,-0.111Z" style="fill:rgb(163,90,61);fill-rule:nonzero;"/></g><g transform="matrix(216.387,0,0,216.387,1054.31,1165)"><path d="M0.613,-0.247C0.617,-0.246 0.62,-0.245 0.622,-0.242C0.624,-0.24 0.625,-0.237 0.625,-0.233C0.625,-0.222 0.615,-0.21 0.595,-0.196C0.575,-0.182 0.554,-0.169 0.531,-0.157C0.507,-0.145 0.491,-0.138 0.481,-0.135C0.448,-0.122 0.416,-0.118 0.384,-0.122C0.352,-0.125 0.325,-0.142 0.301,-0.171C0.286,-0.192 0.275,-0.202 0.267,-0.2C0.26,-0.198 0.25,-0.189 0.24,-0.172C0.228,-0.154 0.209,-0.132 0.183,-0.106C0.153,-0.084 0.125,-0.073 0.098,-0.075C0.072,-0.076 0.05,-0.087 0.032,-0.105C0.014,-0.124 0.003,-0.149 -0.003,-0.178C-0.008,-0.208 -0.005,-0.24 0.006,-0.273C0.016,-0.3 0.035,-0.311 0.065,-0.307C0.073,-0.305 0.08,-0.302 0.084,-0.297C0.089,-0.291 0.09,-0.285 0.088,-0.277C0.082,-0.25 0.079,-0.224 0.081,-0.197C0.08,-0.18 0.083,-0.164 0.09,-0.149C0.097,-0.136 0.107,-0.134 0.12,-0.142C0.132,-0.151 0.145,-0.163 0.157,-0.18C0.17,-0.196 0.18,-0.21 0.187,-0.221C0.188,-0.224 0.19,-0.226 0.191,-0.229C0.194,-0.232 0.197,-0.236 0.2,-0.24C0.208,-0.254 0.218,-0.267 0.228,-0.279C0.245,-0.299 0.267,-0.308 0.293,-0.305C0.316,-0.303 0.332,-0.292 0.342,-0.271C0.36,-0.223 0.388,-0.197 0.424,-0.192C0.46,-0.188 0.499,-0.199 0.542,-0.226C0.553,-0.234 0.564,-0.24 0.575,-0.245C0.587,-0.249 0.599,-0.25 0.613,-0.247Z" style="fill:rgb(163,90,61);fill-rule:nonzero;"/></g><g transform="matrix(216.387,0,0,216.387,1174.86,1165)"><path d="M0.434,-0.23C0.446,-0.243 0.457,-0.248 0.466,-0.245C0.475,-0.243 0.481,-0.236 0.483,-0.225C0.486,-0.214 0.482,-0.201 0.474,-0.188C0.456,-0.161 0.431,-0.133 0.398,-0.102C0.365,-0.072 0.33,-0.045 0.293,-0.023C0.255,-0 0.22,0.012 0.186,0.014C0.118,0.018 0.086,-0.015 0.09,-0.083C0.091,-0.093 0.093,-0.105 0.096,-0.12C0.099,-0.135 0.101,-0.15 0.103,-0.164C0.105,-0.178 0.104,-0.187 0.1,-0.192C0.096,-0.196 0.09,-0.198 0.085,-0.198C0.079,-0.198 0.073,-0.198 0.066,-0.196C0.059,-0.195 0.053,-0.194 0.046,-0.195C0.013,-0.199 -0.004,-0.216 -0.005,-0.247C-0.006,-0.289 0.002,-0.329 0.018,-0.368C0.023,-0.38 0.033,-0.388 0.047,-0.392C0.062,-0.396 0.075,-0.394 0.087,-0.387C0.095,-0.382 0.098,-0.376 0.098,-0.367C0.096,-0.355 0.094,-0.344 0.091,-0.333C0.09,-0.328 0.089,-0.323 0.088,-0.317C0.082,-0.287 0.082,-0.272 0.088,-0.271C0.094,-0.27 0.108,-0.278 0.13,-0.295C0.146,-0.306 0.163,-0.311 0.183,-0.309C0.208,-0.307 0.219,-0.292 0.214,-0.266C0.21,-0.248 0.205,-0.23 0.201,-0.211C0.191,-0.173 0.183,-0.135 0.178,-0.096C0.176,-0.07 0.181,-0.054 0.192,-0.05C0.204,-0.046 0.219,-0.048 0.238,-0.058C0.257,-0.068 0.277,-0.081 0.298,-0.097C0.319,-0.114 0.338,-0.13 0.354,-0.146C0.37,-0.162 0.381,-0.173 0.387,-0.18C0.39,-0.184 0.394,-0.189 0.4,-0.195C0.406,-0.201 0.412,-0.208 0.419,-0.214C0.426,-0.222 0.431,-0.227 0.434,-0.23Z" style="fill:rgb(163,90,61);fill-rule:nonzero;"/></g><g transform="matrix(216.387,0,0,216.387,1266.05,1165)"><path d="M0.104,-0.191L0.102,-0.191L0.104,-0.191ZM0.446,-0.241C0.449,-0.243 0.455,-0.246 0.463,-0.249C0.471,-0.252 0.478,-0.253 0.485,-0.253C0.493,-0.253 0.498,-0.251 0.5,-0.245C0.503,-0.241 0.503,-0.237 0.502,-0.233C0.501,-0.229 0.499,-0.226 0.496,-0.223C0.478,-0.203 0.45,-0.184 0.413,-0.164C0.375,-0.144 0.336,-0.126 0.296,-0.111C0.256,-0.096 0.222,-0.086 0.195,-0.081C0.165,-0.076 0.134,-0.074 0.102,-0.077C0.063,-0.082 0.035,-0.098 0.016,-0.125C-0.003,-0.152 -0.011,-0.183 -0.007,-0.216C-0.002,-0.254 0.015,-0.284 0.044,-0.306C0.073,-0.328 0.107,-0.336 0.144,-0.331C0.167,-0.328 0.188,-0.319 0.206,-0.306C0.226,-0.289 0.235,-0.271 0.233,-0.25C0.231,-0.229 0.218,-0.213 0.195,-0.201C0.183,-0.196 0.17,-0.192 0.155,-0.191C0.141,-0.189 0.124,-0.189 0.104,-0.191L0.091,-0.191C0.085,-0.191 0.082,-0.189 0.08,-0.186C0.078,-0.183 0.078,-0.179 0.08,-0.174C0.09,-0.147 0.111,-0.133 0.143,-0.132C0.174,-0.13 0.21,-0.136 0.25,-0.149C0.29,-0.163 0.327,-0.178 0.363,-0.196C0.399,-0.214 0.427,-0.228 0.446,-0.241ZM0.103,-0.271C0.098,-0.268 0.095,-0.264 0.093,-0.259C0.091,-0.254 0.09,-0.25 0.09,-0.247C0.09,-0.244 0.09,-0.242 0.091,-0.241C0.093,-0.241 0.097,-0.24 0.104,-0.239C0.11,-0.237 0.118,-0.237 0.126,-0.238C0.135,-0.239 0.141,-0.241 0.147,-0.243C0.152,-0.246 0.154,-0.251 0.152,-0.258C0.149,-0.268 0.142,-0.275 0.132,-0.277C0.121,-0.28 0.112,-0.278 0.103,-0.271Z" style="fill:rgb(163,90,61);fill-rule:nonzero;"/></g><g transform="matrix(216.387,0,0,216.387,1371.51,1165)"><path d="M1.883,-0.256C1.892,-0.254 1.898,-0.249 1.901,-0.241C1.904,-0.233 1.901,-0.226 1.893,-0.22C1.876,-0.208 1.859,-0.197 1.841,-0.186C1.8,-0.158 1.758,-0.129 1.718,-0.101C1.69,-0.08 1.662,-0.06 1.634,-0.04C1.615,-0.025 1.596,-0.011 1.577,0.002C1.561,0.013 1.552,0.029 1.549,0.049C1.536,0.128 1.517,0.207 1.492,0.284C1.426,0.478 1.316,0.64 1.16,0.773C1.132,0.798 1.101,0.819 1.069,0.836C1.036,0.853 1.001,0.865 0.962,0.872C0.927,0.878 0.892,0.876 0.858,0.865C0.803,0.844 0.775,0.805 0.775,0.746C0.777,0.715 0.786,0.685 0.801,0.657C0.814,0.63 0.829,0.606 0.846,0.582C0.862,0.559 0.88,0.536 0.9,0.514C0.943,0.465 0.988,0.417 1.035,0.372C1.082,0.326 1.129,0.281 1.178,0.238C1.258,0.165 1.342,0.097 1.429,0.033C1.46,0.011 1.476,-0.019 1.477,-0.057C1.478,-0.085 1.48,-0.114 1.483,-0.143C1.486,-0.159 1.487,-0.176 1.489,-0.193C1.489,-0.2 1.488,-0.208 1.488,-0.217L1.488,-0.231C1.48,-0.227 1.474,-0.222 1.469,-0.217C1.465,-0.211 1.462,-0.205 1.46,-0.199C1.458,-0.197 1.456,-0.194 1.455,-0.19C1.394,-0.091 1.317,-0.008 1.224,0.06C1.184,0.088 1.142,0.111 1.097,0.127C1.053,0.143 1.007,0.152 0.957,0.153C0.896,0.154 0.84,0.144 0.79,0.122C0.739,0.1 0.693,0.067 0.651,0.023C0.606,-0.024 0.572,-0.075 0.548,-0.131C0.524,-0.187 0.509,-0.248 0.503,-0.312C0.501,-0.336 0.5,-0.36 0.5,-0.383C0.499,-0.392 0.498,-0.402 0.498,-0.412C0.498,-0.426 0.491,-0.434 0.477,-0.436C0.467,-0.437 0.457,-0.439 0.447,-0.44C0.411,-0.445 0.376,-0.451 0.341,-0.457C0.282,-0.469 0.226,-0.486 0.171,-0.508C0.117,-0.53 0.064,-0.556 0.011,-0.585C0.008,-0.587 0.005,-0.59 0.003,-0.594C0.001,-0.597 0.002,-0.602 0.004,-0.606C0.005,-0.609 0.006,-0.611 0.009,-0.613C0.011,-0.615 0.014,-0.617 0.017,-0.618C0.037,-0.624 0.057,-0.622 0.077,-0.612C0.093,-0.603 0.11,-0.594 0.126,-0.586C0.233,-0.532 0.346,-0.498 0.464,-0.486C0.48,-0.484 0.491,-0.485 0.496,-0.488C0.501,-0.491 0.505,-0.5 0.507,-0.515C0.51,-0.526 0.512,-0.537 0.514,-0.547C0.518,-0.569 0.524,-0.591 0.53,-0.612C0.556,-0.701 0.593,-0.784 0.641,-0.858C0.689,-0.933 0.749,-1 0.821,-1.059C0.932,-1.148 1.058,-1.195 1.2,-1.201C1.321,-1.202 1.405,-1.183 1.453,-1.143C1.501,-1.103 1.517,-1.049 1.5,-0.98C1.482,-0.912 1.436,-0.838 1.361,-0.756C1.321,-0.712 1.277,-0.674 1.23,-0.642C1.182,-0.609 1.132,-0.58 1.078,-0.555C0.945,-0.493 0.806,-0.455 0.66,-0.441C0.643,-0.44 0.627,-0.438 0.611,-0.436C0.6,-0.434 0.593,-0.432 0.589,-0.428C0.585,-0.425 0.582,-0.418 0.582,-0.409C0.581,-0.327 0.592,-0.251 0.616,-0.179C0.64,-0.108 0.683,-0.043 0.744,0.014C0.756,0.026 0.769,0.036 0.783,0.045C0.873,0.11 0.969,0.12 1.071,0.077C1.117,0.055 1.159,0.029 1.197,-0.003C1.236,-0.035 1.271,-0.069 1.303,-0.108C1.355,-0.17 1.395,-0.236 1.423,-0.307C1.451,-0.378 1.469,-0.454 1.475,-0.535C1.475,-0.535 1.475,-0.536 1.476,-0.537C1.477,-0.557 1.479,-0.576 1.482,-0.595C1.487,-0.626 1.504,-0.64 1.533,-0.638C1.559,-0.638 1.573,-0.624 1.576,-0.595C1.581,-0.548 1.584,-0.5 1.584,-0.452C1.585,-0.344 1.58,-0.236 1.568,-0.128C1.568,-0.118 1.567,-0.108 1.566,-0.097C1.566,-0.095 1.567,-0.092 1.567,-0.089C1.568,-0.086 1.57,-0.084 1.573,-0.083L1.579,-0.083C1.581,-0.083 1.583,-0.083 1.584,-0.084C1.595,-0.09 1.604,-0.096 1.613,-0.103C1.618,-0.105 1.622,-0.108 1.626,-0.111C1.638,-0.119 1.649,-0.127 1.66,-0.134C1.713,-0.169 1.766,-0.204 1.819,-0.239C1.828,-0.246 1.838,-0.251 1.849,-0.254C1.859,-0.258 1.871,-0.259 1.883,-0.256ZM0.594,-0.531C0.592,-0.521 0.591,-0.511 0.592,-0.5C0.592,-0.49 0.598,-0.485 0.608,-0.485C0.632,-0.488 0.657,-0.491 0.682,-0.495C0.763,-0.507 0.842,-0.527 0.917,-0.553C0.993,-0.58 1.066,-0.616 1.135,-0.659C1.179,-0.687 1.22,-0.717 1.256,-0.752C1.293,-0.786 1.325,-0.825 1.353,-0.87C1.416,-0.973 1.431,-1.05 1.398,-1.098C1.364,-1.146 1.287,-1.163 1.167,-1.149C1.108,-1.141 1.052,-1.125 1.001,-1.1C0.949,-1.075 0.902,-1.042 0.857,-1.002C0.787,-0.938 0.73,-0.867 0.687,-0.788C0.644,-0.709 0.613,-0.624 0.594,-0.531ZM1.088,0.748C1.282,0.581 1.403,0.369 1.449,0.112C1.438,0.114 1.43,0.117 1.422,0.121C1.415,0.126 1.409,0.131 1.403,0.137C1.401,0.139 1.398,0.141 1.396,0.142C1.274,0.24 1.16,0.345 1.051,0.457C0.997,0.51 0.949,0.567 0.907,0.629C0.888,0.657 0.874,0.687 0.864,0.719C0.859,0.735 0.857,0.75 0.859,0.765C0.86,0.779 0.867,0.793 0.879,0.806C0.891,0.818 0.904,0.825 0.919,0.826C0.934,0.827 0.95,0.825 0.966,0.819C1.012,0.803 1.053,0.78 1.088,0.748Z" style="fill:rgb(163,90,61);fill-rule:nonzero;"/></g><g transform="matrix(216.387,0,0,216.387,1768.36,1165)"><path d="M0.415,-0.235C0.429,-0.249 0.441,-0.251 0.45,-0.243C0.46,-0.235 0.46,-0.219 0.45,-0.196C0.428,-0.153 0.399,-0.112 0.364,-0.074C0.329,-0.036 0.289,-0.008 0.245,0.01C0.225,0.016 0.206,0.02 0.186,0.02C0.167,0.02 0.147,0.017 0.128,0.012C0.109,0.008 0.093,-0 0.081,-0.012C0.068,-0.024 0.057,-0.038 0.048,-0.053C0.021,-0.105 0.004,-0.179 -0.004,-0.276C-0.011,-0.373 -0.012,-0.479 -0.006,-0.594C-0,-0.709 0.009,-0.819 0.022,-0.925C0.035,-1.03 0.049,-1.117 0.062,-1.186C0.069,-1.214 0.078,-1.241 0.091,-1.267C0.106,-1.294 0.128,-1.306 0.158,-1.304C0.186,-1.304 0.205,-1.291 0.216,-1.264C0.227,-1.23 0.234,-1.196 0.235,-1.161C0.241,-1.078 0.239,-0.995 0.229,-0.913C0.219,-0.833 0.206,-0.759 0.191,-0.69C0.176,-0.621 0.16,-0.553 0.144,-0.486C0.123,-0.405 0.104,-0.32 0.085,-0.231C0.086,-0.222 0.087,-0.214 0.088,-0.207C0.09,-0.182 0.094,-0.16 0.098,-0.142C0.103,-0.124 0.113,-0.101 0.128,-0.075C0.142,-0.05 0.16,-0.036 0.182,-0.035C0.204,-0.033 0.226,-0.04 0.249,-0.053C0.272,-0.067 0.293,-0.083 0.313,-0.102C0.332,-0.121 0.347,-0.139 0.357,-0.154C0.36,-0.159 0.366,-0.166 0.374,-0.178C0.382,-0.19 0.39,-0.201 0.397,-0.212C0.405,-0.223 0.411,-0.231 0.415,-0.235ZM0.075,-0.494C0.084,-0.517 0.094,-0.556 0.103,-0.608C0.112,-0.661 0.121,-0.719 0.128,-0.784C0.136,-0.848 0.142,-0.91 0.146,-0.968C0.149,-1.026 0.151,-1.073 0.15,-1.108C0.149,-1.143 0.144,-1.158 0.136,-1.152C0.125,-1.103 0.117,-1.057 0.114,-1.015C0.111,-0.993 0.108,-0.96 0.104,-0.916C0.096,-0.84 0.088,-0.759 0.081,-0.674C0.073,-0.588 0.072,-0.528 0.075,-0.494Z" style="fill:rgb(163,90,61);fill-rule:nonzero;"/></g><g transform="matrix(216.387,0,0,216.387,1856.59,1165)"><path d="M0.54,-0.255C0.552,-0.257 0.56,-0.257 0.563,-0.254C0.565,-0.251 0.566,-0.247 0.564,-0.24C0.564,-0.229 0.56,-0.219 0.551,-0.21C0.543,-0.202 0.532,-0.194 0.518,-0.188C0.486,-0.173 0.454,-0.164 0.423,-0.161C0.393,-0.159 0.36,-0.162 0.327,-0.169C0.312,-0.174 0.299,-0.174 0.289,-0.17C0.278,-0.166 0.268,-0.154 0.257,-0.134C0.23,-0.082 0.188,-0.053 0.13,-0.047C0.086,-0.043 0.054,-0.051 0.033,-0.072C0.012,-0.092 -0.001,-0.119 -0.006,-0.151C-0.013,-0.184 -0.011,-0.215 -0.002,-0.244C0.007,-0.273 0.022,-0.3 0.044,-0.325C0.061,-0.343 0.081,-0.351 0.105,-0.348C0.117,-0.348 0.126,-0.343 0.132,-0.335C0.136,-0.329 0.136,-0.324 0.134,-0.32C0.132,-0.316 0.128,-0.312 0.124,-0.308C0.089,-0.271 0.073,-0.228 0.075,-0.178C0.076,-0.154 0.083,-0.133 0.096,-0.113C0.107,-0.097 0.121,-0.095 0.138,-0.106C0.154,-0.119 0.169,-0.137 0.181,-0.16C0.194,-0.182 0.201,-0.206 0.203,-0.23C0.205,-0.254 0.198,-0.275 0.183,-0.294C0.175,-0.301 0.168,-0.306 0.161,-0.309C0.157,-0.311 0.154,-0.313 0.151,-0.315C0.148,-0.316 0.146,-0.319 0.146,-0.322C0.146,-0.338 0.153,-0.35 0.166,-0.358C0.178,-0.365 0.194,-0.369 0.213,-0.369C0.231,-0.369 0.249,-0.365 0.265,-0.358C0.281,-0.35 0.291,-0.34 0.296,-0.325C0.301,-0.307 0.303,-0.288 0.3,-0.269C0.3,-0.253 0.307,-0.241 0.321,-0.233C0.351,-0.211 0.385,-0.204 0.421,-0.21C0.436,-0.213 0.45,-0.217 0.463,-0.222C0.475,-0.227 0.487,-0.232 0.498,-0.238C0.513,-0.246 0.527,-0.252 0.54,-0.255Z" style="fill:rgb(163,90,61);fill-rule:nonzero;"/></g><g transform="matrix(216.387,0,0,216.387,1967.95,1165)"><path d="M0.421,-0.393C0.445,-0.393 0.457,-0.382 0.457,-0.36C0.454,-0.325 0.449,-0.29 0.441,-0.256C0.433,-0.222 0.419,-0.189 0.4,-0.158C0.377,-0.117 0.341,-0.097 0.292,-0.1C0.263,-0.102 0.24,-0.114 0.223,-0.135C0.212,-0.148 0.205,-0.153 0.2,-0.152C0.196,-0.151 0.191,-0.146 0.187,-0.138C0.184,-0.133 0.181,-0.129 0.177,-0.124C0.166,-0.108 0.152,-0.095 0.135,-0.086C0.113,-0.074 0.092,-0.071 0.072,-0.076C0.052,-0.081 0.036,-0.095 0.023,-0.116C0.009,-0.143 0,-0.17 -0.004,-0.199C-0.008,-0.227 -0.008,-0.256 -0.003,-0.286C-0,-0.302 0.008,-0.314 0.023,-0.321C0.038,-0.328 0.053,-0.327 0.069,-0.319C0.079,-0.313 0.082,-0.303 0.08,-0.291C0.075,-0.272 0.074,-0.252 0.075,-0.233C0.077,-0.213 0.081,-0.194 0.086,-0.175C0.09,-0.16 0.095,-0.154 0.101,-0.156C0.107,-0.158 0.112,-0.164 0.118,-0.174C0.124,-0.183 0.128,-0.192 0.132,-0.2C0.133,-0.201 0.134,-0.203 0.134,-0.204C0.137,-0.21 0.14,-0.216 0.142,-0.223C0.144,-0.228 0.146,-0.233 0.149,-0.239C0.157,-0.255 0.165,-0.266 0.176,-0.271C0.186,-0.277 0.2,-0.278 0.218,-0.276C0.236,-0.274 0.248,-0.265 0.255,-0.248C0.256,-0.247 0.257,-0.245 0.258,-0.243C0.267,-0.222 0.277,-0.202 0.288,-0.182C0.296,-0.167 0.304,-0.164 0.314,-0.173C0.323,-0.182 0.332,-0.195 0.34,-0.214C0.348,-0.233 0.355,-0.252 0.361,-0.27C0.367,-0.289 0.37,-0.301 0.371,-0.306C0.371,-0.31 0.372,-0.313 0.373,-0.317C0.375,-0.331 0.379,-0.346 0.382,-0.361C0.387,-0.382 0.4,-0.393 0.421,-0.393Z" style="fill:rgb(163,90,61);fill-rule:nonzero;"/></g><g transform="matrix(216.387,0,0,216.387,2124.93,1165)"><path d="M1.575,-0.568C1.574,-0.567 1.572,-0.567 1.571,-0.567C1.569,-0.566 1.567,-0.565 1.567,-0.564C1.546,-0.477 1.526,-0.388 1.508,-0.298C1.498,-0.246 1.488,-0.195 1.477,-0.144C1.444,0.006 1.398,0.153 1.34,0.295C1.326,0.328 1.311,0.36 1.293,0.39C1.282,0.41 1.268,0.428 1.251,0.445C1.222,0.471 1.191,0.482 1.158,0.476C1.125,0.471 1.099,0.451 1.079,0.417C1.065,0.389 1.056,0.359 1.052,0.328C1.044,0.272 1.04,0.216 1.04,0.16C1.04,0.104 1.042,0.048 1.047,-0.009C1.062,-0.18 1.079,-0.351 1.099,-0.521C1.103,-0.561 1.108,-0.6 1.112,-0.64C1.128,-0.772 1.14,-0.905 1.148,-1.037C1.151,-1.098 1.149,-1.158 1.14,-1.218C1.128,-1.289 1.1,-1.339 1.054,-1.365C1.009,-1.392 0.952,-1.401 0.885,-1.391C0.817,-1.381 0.744,-1.356 0.667,-1.318C0.589,-1.28 0.513,-1.232 0.437,-1.174C0.361,-1.116 0.293,-1.052 0.232,-0.982C0.172,-0.912 0.124,-0.841 0.088,-0.769C0.053,-0.696 0.037,-0.626 0.041,-0.559C0.045,-0.496 0.069,-0.442 0.112,-0.397C0.153,-0.354 0.198,-0.321 0.247,-0.298C0.296,-0.275 0.35,-0.263 0.411,-0.263C0.418,-0.264 0.426,-0.264 0.432,-0.262C0.439,-0.26 0.444,-0.255 0.447,-0.247C0.449,-0.241 0.447,-0.235 0.441,-0.229C0.434,-0.222 0.426,-0.219 0.415,-0.217C0.398,-0.215 0.382,-0.215 0.365,-0.216C0.242,-0.226 0.137,-0.275 0.05,-0.362C0.011,-0.401 -0.015,-0.444 -0.029,-0.491C-0.043,-0.538 -0.047,-0.588 -0.04,-0.642C-0.028,-0.722 0.004,-0.803 0.056,-0.883C0.108,-0.963 0.172,-1.039 0.249,-1.11C0.326,-1.181 0.409,-1.243 0.498,-1.296C0.587,-1.35 0.676,-1.39 0.763,-1.417C0.851,-1.444 0.931,-1.454 1.004,-1.447C1.115,-1.435 1.187,-1.375 1.219,-1.268C1.232,-1.217 1.239,-1.166 1.239,-1.114C1.239,-1.068 1.238,-1.023 1.234,-0.977C1.231,-0.932 1.227,-0.887 1.223,-0.841C1.222,-0.839 1.222,-0.837 1.222,-0.834C1.211,-0.727 1.2,-0.62 1.187,-0.513C1.171,-0.378 1.157,-0.243 1.145,-0.109C1.139,-0.04 1.134,0.029 1.131,0.098C1.128,0.167 1.13,0.237 1.138,0.307C1.141,0.338 1.149,0.368 1.163,0.397C1.171,0.411 1.18,0.412 1.191,0.398C1.212,0.37 1.23,0.34 1.244,0.307C1.307,0.159 1.355,0.007 1.389,-0.15C1.42,-0.291 1.45,-0.431 1.479,-0.572C1.494,-0.647 1.51,-0.722 1.525,-0.796C1.526,-0.798 1.527,-0.799 1.527,-0.799C1.529,-0.817 1.534,-0.833 1.54,-0.85C1.548,-0.866 1.56,-0.877 1.575,-0.883C1.591,-0.889 1.607,-0.888 1.624,-0.881C1.64,-0.872 1.649,-0.859 1.65,-0.841C1.651,-0.833 1.652,-0.826 1.652,-0.818C1.656,-0.786 1.658,-0.755 1.66,-0.723C1.662,-0.659 1.664,-0.595 1.665,-0.53C1.667,-0.45 1.669,-0.371 1.672,-0.291C1.674,-0.212 1.68,-0.134 1.69,-0.058L1.69,-0.056C1.691,-0.033 1.697,-0.011 1.706,0.011C1.715,0.005 1.721,-0.002 1.724,-0.01C1.728,-0.018 1.731,-0.026 1.733,-0.035C1.734,-0.039 1.736,-0.043 1.737,-0.047C1.767,-0.14 1.793,-0.239 1.815,-0.344C1.837,-0.45 1.857,-0.555 1.875,-0.659C1.887,-0.732 1.899,-0.802 1.912,-0.87C1.93,-0.959 1.948,-1.049 1.965,-1.138C1.965,-1.139 1.966,-1.14 1.966,-1.142C1.967,-1.146 1.968,-1.152 1.969,-1.157C1.974,-1.17 1.983,-1.179 1.996,-1.184C2.009,-1.189 2.022,-1.187 2.035,-1.18C2.039,-1.177 2.042,-1.173 2.043,-1.168C2.044,-1.163 2.044,-1.158 2.042,-1.152C2.037,-1.119 2.032,-1.086 2.027,-1.052C2.019,-0.991 2.009,-0.93 1.998,-0.87C1.987,-0.812 1.976,-0.751 1.965,-0.688C1.946,-0.573 1.924,-0.458 1.9,-0.342C1.876,-0.225 1.847,-0.117 1.813,-0.018C1.803,0.012 1.79,0.041 1.772,0.067C1.762,0.085 1.746,0.098 1.726,0.105C1.678,0.119 1.645,0.103 1.626,0.056C1.619,0.036 1.614,0.016 1.61,-0.004C1.607,-0.025 1.604,-0.046 1.602,-0.066C1.595,-0.126 1.59,-0.186 1.587,-0.248C1.585,-0.31 1.583,-0.372 1.582,-0.434C1.581,-0.466 1.58,-0.499 1.579,-0.532C1.578,-0.54 1.578,-0.548 1.577,-0.556C1.576,-0.56 1.576,-0.564 1.575,-0.568Z" style="fill:rgb(163,90,61);fill-rule:nonzero;"/></g><g transform="matrix(216.387,0,0,216.387,2563.41,1165)"><path d="M0.104,-0.191L0.102,-0.191L0.104,-0.191ZM0.446,-0.241C0.449,-0.243 0.455,-0.246 0.463,-0.249C0.471,-0.252 0.478,-0.253 0.485,-0.253C0.493,-0.253 0.498,-0.251 0.5,-0.245C0.503,-0.241 0.503,-0.237 0.502,-0.233C0.501,-0.229 0.499,-0.226 0.496,-0.223C0.478,-0.203 0.45,-0.184 0.413,-0.164C0.375,-0.144 0.336,-0.126 0.296,-0.111C0.256,-0.096 0.222,-0.086 0.195,-0.081C0.165,-0.076 0.134,-0.074 0.102,-0.077C0.063,-0.082 0.035,-0.098 0.016,-0.125C-0.003,-0.152 -0.011,-0.183 -0.007,-0.216C-0.002,-0.254 0.015,-0.284 0.044,-0.306C0.073,-0.328 0.107,-0.336 0.144,-0.331C0.167,-0.328 0.188,-0.319 0.206,-0.306C0.226,-0.289 0.235,-0.271 0.233,-0.25C0.231,-0.229 0.218,-0.213 0.195,-0.201C0.183,-0.196 0.17,-0.192 0.155,-0.191C0.141,-0.189 0.124,-0.189 0.104,-0.191L0.091,-0.191C0.085,-0.191 0.082,-0.189 0.08,-0.186C0.078,-0.183 0.078,-0.179 0.08,-0.174C0.09,-0.147 0.111,-0.133 0.143,-0.132C0.174,-0.13 0.21,-0.136 0.25,-0.149C0.29,-0.163 0.327,-0.178 0.363,-0.196C0.399,-0.214 0.427,-0.228 0.446,-0.241ZM0.103,-0.271C0.098,-0.268 0.095,-0.264 0.093,-0.259C0.091,-0.254 0.09,-0.25 0.09,-0.247C0.09,-0.244 0.09,-0.242 0.091,-0.241C0.093,-0.241 0.097,-0.24 0.104,-0.239C0.11,-0.237 0.118,-0.237 0.126,-0.238C0.135,-0.239 0.141,-0.241 0.147,-0.243C0.152,-0.246 0.154,-0.251 0.152,-0.258C0.149,-0.268 0.142,-0.275 0.132,-0.277C0.121,-0.28 0.112,-0.278 0.103,-0.271Z" style="fill:rgb(163,90,61);fill-rule:nonzero;"/></g><g transform="matrix(216.387,0,0,216.387,2661.04,1165)"><path d="M0.076,-0.494C0.085,-0.517 0.094,-0.556 0.103,-0.608C0.112,-0.661 0.121,-0.719 0.128,-0.784C0.136,-0.848 0.142,-0.91 0.146,-0.968C0.15,-1.026 0.152,-1.073 0.151,-1.108C0.15,-1.143 0.145,-1.158 0.136,-1.152C0.125,-1.103 0.117,-1.057 0.114,-1.015C0.112,-0.993 0.109,-0.96 0.104,-0.916C0.096,-0.84 0.089,-0.759 0.081,-0.674C0.074,-0.588 0.072,-0.528 0.076,-0.494ZM0.473,-0.471C0.481,-0.493 0.49,-0.527 0.499,-0.575C0.509,-0.623 0.517,-0.676 0.525,-0.734C0.532,-0.792 0.538,-0.848 0.542,-0.901C0.547,-0.954 0.548,-0.996 0.547,-1.028C0.546,-1.06 0.541,-1.074 0.533,-1.068C0.521,-1.024 0.514,-0.983 0.51,-0.944C0.509,-0.924 0.505,-0.894 0.5,-0.854C0.493,-0.785 0.485,-0.712 0.478,-0.634C0.47,-0.556 0.468,-0.502 0.473,-0.471ZM0.417,-0.139C0.401,-0.116 0.383,-0.095 0.364,-0.074C0.329,-0.036 0.289,-0.008 0.245,0.01C0.225,0.016 0.206,0.02 0.186,0.02C0.167,0.02 0.147,0.017 0.128,0.012C0.109,0.008 0.093,-0 0.081,-0.012C0.068,-0.024 0.057,-0.038 0.048,-0.053C0.021,-0.105 0.004,-0.179 -0.004,-0.276C-0.011,-0.373 -0.012,-0.479 -0.006,-0.594C-0,-0.709 0.009,-0.819 0.022,-0.925C0.035,-1.03 0.049,-1.117 0.062,-1.186C0.069,-1.214 0.078,-1.241 0.091,-1.267C0.106,-1.294 0.128,-1.306 0.158,-1.304C0.186,-1.304 0.205,-1.291 0.216,-1.264C0.227,-1.23 0.234,-1.196 0.235,-1.161C0.241,-1.078 0.239,-0.995 0.229,-0.913C0.219,-0.833 0.206,-0.759 0.191,-0.69C0.176,-0.621 0.16,-0.553 0.144,-0.486C0.123,-0.405 0.104,-0.32 0.085,-0.231C0.086,-0.222 0.087,-0.214 0.088,-0.207C0.09,-0.182 0.094,-0.16 0.098,-0.142C0.103,-0.124 0.113,-0.101 0.128,-0.075C0.142,-0.05 0.16,-0.036 0.182,-0.035C0.204,-0.033 0.226,-0.04 0.249,-0.053C0.272,-0.067 0.293,-0.083 0.313,-0.102C0.332,-0.121 0.347,-0.139 0.357,-0.154C0.36,-0.159 0.366,-0.166 0.374,-0.178C0.382,-0.19 0.387,-0.203 0.39,-0.219C0.393,-0.234 0.394,-0.253 0.393,-0.273C0.385,-0.362 0.384,-0.458 0.39,-0.562C0.396,-0.666 0.406,-0.766 0.419,-0.862C0.432,-0.957 0.445,-1.036 0.458,-1.099C0.465,-1.124 0.475,-1.149 0.488,-1.173C0.502,-1.196 0.524,-1.207 0.554,-1.206C0.582,-1.206 0.602,-1.194 0.612,-1.17C0.624,-1.14 0.63,-1.108 0.631,-1.076C0.637,-1.001 0.635,-0.926 0.625,-0.851C0.615,-0.779 0.602,-0.712 0.587,-0.649C0.572,-0.587 0.557,-0.525 0.54,-0.465C0.52,-0.391 0.505,-0.332 0.496,-0.287C0.487,-0.243 0.483,-0.217 0.484,-0.21C0.487,-0.188 0.49,-0.168 0.495,-0.152C0.499,-0.135 0.509,-0.115 0.524,-0.091C0.538,-0.068 0.556,-0.056 0.578,-0.055C0.6,-0.054 0.623,-0.059 0.646,-0.072C0.668,-0.084 0.689,-0.098 0.709,-0.116C0.728,-0.133 0.743,-0.149 0.754,-0.163C0.757,-0.167 0.762,-0.174 0.77,-0.184C0.778,-0.194 0.786,-0.204 0.794,-0.215C0.802,-0.225 0.807,-0.232 0.811,-0.236C0.825,-0.248 0.837,-0.251 0.847,-0.243C0.857,-0.235 0.856,-0.221 0.846,-0.201C0.824,-0.161 0.795,-0.124 0.76,-0.09C0.726,-0.055 0.686,-0.03 0.641,-0.014C0.622,-0.008 0.602,-0.005 0.583,-0.005C0.563,-0.005 0.543,-0.007 0.524,-0.011C0.505,-0.016 0.49,-0.023 0.477,-0.033C0.465,-0.044 0.454,-0.056 0.445,-0.072C0.434,-0.091 0.425,-0.113 0.417,-0.139Z" style="fill:rgb(163,90,61);fill-rule:nonzero;"/></g><g transform="matrix(216.387,0,0,216.387,2835.38,1165)"><path d="M0.645,-0.229L0.646,-0.229C0.649,-0.229 0.653,-0.228 0.656,-0.226C0.66,-0.224 0.662,-0.221 0.663,-0.215C0.665,-0.206 0.662,-0.199 0.655,-0.194C0.626,-0.173 0.595,-0.157 0.561,-0.146C0.531,-0.136 0.5,-0.13 0.469,-0.127C0.439,-0.124 0.408,-0.125 0.376,-0.127C0.335,-0.132 0.302,-0.151 0.277,-0.186C0.27,-0.196 0.262,-0.207 0.253,-0.218C0.246,-0.229 0.237,-0.24 0.229,-0.251C0.222,-0.26 0.213,-0.262 0.202,-0.254C0.189,-0.245 0.177,-0.234 0.167,-0.222C0.157,-0.211 0.147,-0.198 0.138,-0.186C0.137,-0.184 0.136,-0.182 0.135,-0.181C0.132,-0.177 0.128,-0.172 0.125,-0.167C0.12,-0.159 0.115,-0.152 0.11,-0.146C0.1,-0.135 0.088,-0.128 0.073,-0.125C0.058,-0.122 0.044,-0.123 0.03,-0.128C0.02,-0.134 0.014,-0.141 0.011,-0.151C0.002,-0.188 -0.004,-0.225 -0.006,-0.262C-0.006,-0.282 0.003,-0.294 0.021,-0.297C0.043,-0.302 0.058,-0.295 0.068,-0.277C0.069,-0.274 0.07,-0.27 0.071,-0.266C0.072,-0.262 0.073,-0.258 0.075,-0.254C0.077,-0.25 0.08,-0.246 0.085,-0.244C0.091,-0.249 0.096,-0.253 0.101,-0.257C0.112,-0.267 0.124,-0.277 0.134,-0.287C0.147,-0.297 0.161,-0.305 0.175,-0.31C0.19,-0.314 0.205,-0.316 0.221,-0.316C0.259,-0.316 0.289,-0.301 0.312,-0.271C0.316,-0.265 0.32,-0.259 0.325,-0.253C0.334,-0.238 0.345,-0.224 0.355,-0.21C0.373,-0.188 0.396,-0.176 0.424,-0.176C0.454,-0.174 0.482,-0.177 0.509,-0.184C0.535,-0.191 0.561,-0.201 0.586,-0.214C0.587,-0.215 0.589,-0.216 0.59,-0.217C0.598,-0.222 0.607,-0.226 0.616,-0.229C0.625,-0.231 0.634,-0.232 0.645,-0.229Z" style="fill:rgb(163,90,61);fill-rule:nonzero;"/></g><g transform="matrix(216.387,0,0,216.387,2965.76,1165)"><path d="M0.104,-0.191L0.102,-0.191L0.104,-0.191ZM0.446,-0.241C0.449,-0.243 0.455,-0.246 0.463,-0.249C0.471,-0.252 0.478,-0.253 0.485,-0.253C0.493,-0.253 0.498,-0.251 0.5,-0.245C0.503,-0.241 0.503,-0.237 0.502,-0.233C0.501,-0.229 0.499,-0.226 0.496,-0.223C0.478,-0.203 0.45,-0.184 0.413,-0.164C0.375,-0.144 0.336,-0.126 0.296,-0.111C0.256,-0.096 0.222,-0.086 0.195,-0.081C0.165,-0.076 0.134,-0.074 0.102,-0.077C0.063,-0.082 0.035,-0.098 0.016,-0.125C-0.003,-0.152 -0.011,-0.183 -0.007,-0.216C-0.002,-0.254 0.015,-0.284 0.044,-0.306C0.073,-0.328 0.107,-0.336 0.144,-0.331C0.167,-0.328 0.188,-0.319 0.206,-0.306C0.226,-0.289 0.235,-0.271 0.233,-0.25C0.231,-0.229 0.218,-0.213 0.195,-0.201C0.183,-0.196 0.17,-0.192 0.155,-0.191C0.141,-0.189 0.124,-0.189 0.104,-0.191L0.091,-0.191C0.085,-0.191 0.082,-0.189 0.08,-0.186C0.078,-0.183 0.078,-0.179 0.08,-0.174C0.09,-0.147 0.111,-0.133 0.143,-0.132C0.174,-0.13 0.21,-0.136 0.25,-0.149C0.29,-0.163 0.327,-0.178 0.363,-0.196C0.399,-0.214 0.427,-0.228 0.446,-0.241ZM0.103,-0.271C0.098,-0.268 0.095,-0.264 0.093,-0.259C0.091,-0.254 0.09,-0.25 0.09,-0.247C0.09,-0.244 0.09,-0.242 0.091,-0.241C0.093,-0.241 0.097,-0.24 0.104,-0.239C0.11,-0.237 0.118,-0.237 0.126,-0.238C0.135,-0.239 0.141,-0.241 0.147,-0.243C0.152,-0.246 0.154,-0.251 0.152,-0.258C0.149,-0.268 0.142,-0.275 0.132,-0.277C0.121,-0.28 0.112,-0.278 0.103,-0.271Z" style="fill:rgb(163,90,61);fill-rule:nonzero;"/></g><g transform="matrix(216.387,0,0,216.387,3063.39,1165)"><path d="M0.431,-0.245C0.443,-0.242 0.45,-0.236 0.451,-0.225C0.452,-0.214 0.447,-0.202 0.434,-0.191C0.422,-0.18 0.41,-0.17 0.398,-0.161C0.37,-0.137 0.339,-0.112 0.306,-0.085C0.28,-0.065 0.257,-0.042 0.235,-0.017C0.219,0 0.208,0.02 0.2,0.041C0.191,0.069 0.177,0.094 0.157,0.116C0.145,0.129 0.132,0.137 0.118,0.14C0.103,0.143 0.088,0.142 0.072,0.138C0.064,0.136 0.058,0.132 0.054,0.125C0.05,0.119 0.049,0.112 0.052,0.104C0.054,0.092 0.059,0.081 0.065,0.07C0.075,0.057 0.085,0.043 0.096,0.03C0.096,0.029 0.097,0.028 0.099,0.026C0.136,-0.02 0.138,-0.068 0.105,-0.117C0.097,-0.127 0.088,-0.138 0.079,-0.148C0.076,-0.152 0.072,-0.155 0.069,-0.159C0.063,-0.166 0.057,-0.173 0.05,-0.179C0.038,-0.192 0.027,-0.205 0.015,-0.22C-0.017,-0.265 -0.015,-0.308 0.021,-0.35C0.053,-0.387 0.092,-0.413 0.14,-0.427C0.169,-0.436 0.197,-0.433 0.225,-0.419C0.251,-0.405 0.263,-0.383 0.261,-0.353C0.258,-0.333 0.248,-0.321 0.231,-0.317C0.209,-0.313 0.193,-0.32 0.184,-0.338C0.181,-0.345 0.179,-0.351 0.177,-0.356C0.176,-0.362 0.174,-0.366 0.172,-0.369C0.17,-0.372 0.166,-0.373 0.161,-0.372C0.156,-0.371 0.148,-0.367 0.138,-0.36C0.121,-0.351 0.107,-0.338 0.095,-0.322C0.075,-0.298 0.074,-0.273 0.091,-0.247C0.097,-0.238 0.104,-0.23 0.111,-0.223C0.119,-0.214 0.126,-0.206 0.133,-0.197C0.148,-0.183 0.161,-0.168 0.174,-0.153C0.187,-0.138 0.198,-0.122 0.208,-0.105C0.215,-0.106 0.227,-0.113 0.245,-0.125C0.263,-0.137 0.282,-0.152 0.303,-0.168C0.324,-0.184 0.344,-0.198 0.361,-0.211C0.375,-0.223 0.385,-0.231 0.391,-0.235C0.396,-0.238 0.402,-0.241 0.409,-0.243C0.416,-0.245 0.424,-0.245 0.431,-0.245Z" style="fill:rgb(163,90,61);fill-rule:nonzero;"/></g><g transform="matrix(216.387,0,0,216.387,3146.75,1165)"><path d="M0.431,-0.245C0.443,-0.242 0.45,-0.236 0.451,-0.225C0.452,-0.214 0.447,-0.202 0.434,-0.191C0.422,-0.18 0.41,-0.17 0.398,-0.161C0.37,-0.137 0.339,-0.112 0.306,-0.085C0.28,-0.065 0.257,-0.042 0.235,-0.017C0.219,0 0.208,0.02 0.2,0.041C0.191,0.069 0.177,0.094 0.157,0.116C0.145,0.129 0.132,0.137 0.118,0.14C0.103,0.143 0.088,0.142 0.072,0.138C0.064,0.136 0.058,0.132 0.054,0.125C0.05,0.119 0.049,0.112 0.052,0.104C0.054,0.092 0.059,0.081 0.065,0.07C0.075,0.057 0.085,0.043 0.096,0.03C0.096,0.029 0.097,0.028 0.099,0.026C0.136,-0.02 0.138,-0.068 0.105,-0.117C0.097,-0.127 0.088,-0.138 0.079,-0.148C0.076,-0.152 0.072,-0.155 0.069,-0.159C0.063,-0.166 0.057,-0.173 0.05,-0.179C0.038,-0.192 0.027,-0.205 0.015,-0.22C-0.017,-0.265 -0.015,-0.308 0.021,-0.35C0.053,-0.387 0.092,-0.413 0.14,-0.427C0.169,-0.436 0.197,-0.433 0.225,-0.419C0.251,-0.405 0.263,-0.383 0.261,-0.353C0.258,-0.333 0.248,-0.321 0.231,-0.317C0.209,-0.313 0.193,-0.32 0.184,-0.338C0.181,-0.345 0.179,-0.351 0.177,-0.356C0.176,-0.362 0.174,-0.366 0.172,-0.369C0.17,-0.372 0.166,-0.373 0.161,-0.372C0.156,-0.371 0.148,-0.367 0.138,-0.36C0.121,-0.351 0.107,-0.338 0.095,-0.322C0.075,-0.298 0.074,-0.273 0.091,-0.247C0.097,-0.238 0.104,-0.23 0.111,-0.223C0.119,-0.214 0.126,-0.206 0.133,-0.197C0.148,-0.183 0.161,-0.168 0.174,-0.153C0.187,-0.138 0.198,-0.122 0.208,-0.105C0.215,-0.106 0.227,-0.113 0.245,-0.125C0.263,-0.137 0.282,-0.152 0.303,-0.168C0.324,-0.184 0.344,-0.198 0.361,-0.211C0.375,-0.223 0.385,-0.231 0.391,-0.235C0.396,-0.238 0.402,-0.241 0.409,-0.243C0.416,-0.245 0.424,-0.245 0.431,-0.245Z" style="fill:rgb(163,90,61);fill-rule:nonzero;"/></g></g></svg>